<?xml version="1.0" encoding="UTF-8" standalone="no" ?>
<!DOCTYPE svg PUBLIC "-//W3C//DTD SVG 1.1//EN" "http://www.w3.org/Graphics/SVG/1.1/DTD/svg11.dtd">
<svg xmlns="http://www.w3.org/2000/svg" xmlns:xlink="http://www.w3.org/1999/xlink" version="1.1" width="64" height="64" viewBox="173.74243 173.74243 152.51513999999997 152.51513999999997" xml:space="preserve">
<desc>Created with Fabric.js 5.3.0</desc>
<defs>
</defs>
<g transform="matrix(1 0 0 1 250 250)" id="U1T3zz5ChAz02AyERHs6c"  >
<linearGradient id="SVGID_750" gradientUnits="userSpaceOnUse" gradientTransform="matrix(1 0 0 1 0 0)"  x1="20.562770562770552" y1="22.727269874089743" x2="130.95237524601504" y2="128.24675039357027">
<stop offset="0%" style="stop-color:#000000;stop-opacity: 1"/>
<stop offset="100%" style="stop-color:#12BE12;stop-opacity: 1"/>
</linearGradient>
<path style="stroke: rgb(0,0,0); stroke-width: 1; stroke-dasharray: none; stroke-linecap: butt; stroke-dashoffset: 0; stroke-linejoin: miter; stroke-miterlimit: 4; fill: url(#SVGID_750); fill-rule: nonzero; opacity: 1;"  transform=" translate(-75.75757, -75.75757)" d="M 75.75757 0 C 117.57575 0 151.51514 33.93939 151.51514 75.75757 C 151.51514 117.57575 117.57575 151.51514 75.75757 151.51514 C 33.93939 151.51514 0 117.57575 0 75.75757 C 0 33.93939 33.93939 0 75.75757 0 z" stroke-linecap="round" />
</g>
<g transform="matrix(1.1723020055 0 0 1.1723020055 242.6549300323 250)" id="0d68-1vmhBENpETz5TdAy"  >
<path style="stroke:white;stroke-width: 0; stroke-dasharray: none; stroke-linecap: butt; stroke-dashoffset: 0; stroke-linejoin: miter; stroke-miterlimit: 4; stroke: white;fill-rule: nonzero; opacity: 1;filter: url(#SVGID_701);"  transform=" translate(0, 0)" d="M -10.7195 -26.66 L -10.7195 21.200999999999997 C -13.0495 19.786999999999995 -15.8985 19.017999999999997 -18.8845 19.017999999999997 C -26.2515 19.017999999999997 -32.2445 23.724999999999998 -32.2445 29.508999999999997 C -32.2445 35.294999999999995 -26.2515 40 -18.884500000000003 40 C -11.862500000000002 40 -5.934500000000003 35.793 -5.2855000000000025 30.494999999999997 L -5.2215000000000025 30.494999999999997 L -5.2215000000000025 -12.744 L 27.0485 -23.297 L 27.0485 6.850999999999999 C 24.7185 5.436999999999999 21.869500000000002 4.669999999999999 18.884500000000003 4.669999999999999 C 11.517500000000002 4.669999999999999 5.524500000000003 9.375 5.524500000000003 15.160999999999998 C 5.524500000000003 20.944999999999997 11.517500000000004 25.651999999999997 18.884500000000003 25.651999999999997 C 26.251500000000004 25.651999999999997 32.2445 20.944999999999997 32.2445 15.160999999999998 L 32.2445 -40 z M -5.2215 -19.125 L -5.2215 -21.832 L 27.048500000000004 -32.385000000000005 L 27.048500000000004 -29.359000000000005 z" stroke-linecap="round" />
<filter id="SVGID_701" y="-27.5%" height="155%" x="-29.3039123%" width="158.60782460000001%" >
	<feGaussianBlur in="SourceAlpha" stdDeviation="1"></feGaussianBlur>
	<feOffset dx="4" dy="4" result="oBlur" ></feOffset>
	<feFlood flood-color="rgb(0,0,0)" flood-opacity="1"/>
	<feComposite in2="oBlur" operator="in" />
	<feMerge>
		<feMergeNode></feMergeNode>
		<feMergeNode in="SourceGraphic"></feMergeNode>
	</feMerge>
</filter>
<path style="stroke: rgb(0,0,0); stroke-width: 0; stroke-dasharray: none; stroke-linecap: butt; stroke-dashoffset: 0; stroke-linejoin: miter; stroke-miterlimit: 4; fill: rgb(250,250,250); fill-rule: nonzero; opacity: 1;"  transform=" translate(0, 0)" d="M -10.7195 -26.66 L -10.7195 21.200999999999997 C -13.0495 19.786999999999995 -15.8985 19.017999999999997 -18.8845 19.017999999999997 C -26.2515 19.017999999999997 -32.2445 23.724999999999998 -32.2445 29.508999999999997 C -32.2445 35.294999999999995 -26.2515 40 -18.884500000000003 40 C -11.862500000000002 40 -5.934500000000003 35.793 -5.2855000000000025 30.494999999999997 L -5.2215000000000025 30.494999999999997 L -5.2215000000000025 -12.744 L 27.0485 -23.297 L 27.0485 6.850999999999999 C 24.7185 5.436999999999999 21.869500000000002 4.669999999999999 18.884500000000003 4.669999999999999 C 11.517500000000002 4.669999999999999 5.524500000000003 9.375 5.524500000000003 15.160999999999998 C 5.524500000000003 20.944999999999997 11.517500000000004 25.651999999999997 18.884500000000003 25.651999999999997 C 26.251500000000004 25.651999999999997 32.2445 20.944999999999997 32.2445 15.160999999999998 L 32.2445 -40 z M -5.2215 -19.125 L -5.2215 -21.832 L 27.048500000000004 -32.385000000000005 L 27.048500000000004 -29.359000000000005 z" stroke-linecap="round" />
</g>
</svg>